<svg width="393" height="150" viewBox="0 0 393 150" fill="none" xmlns="http://www.w3.org/2000/svg">
<mask id="mask0_123_2" style="mask-type:luminance" maskUnits="userSpaceOnUse" x="0" y="0" width="393" height="150">
<path d="M21.5436 0.119995H370.555C376.268 0.119995 381.743 2.38687 385.779 6.42337C389.816 10.4647 392.083 15.9394 392.083 21.648V127.884C392.083 133.593 389.816 139.067 385.779 143.104C381.743 147.14 376.268 149.412 370.555 149.412H21.5436C15.835 149.412 10.3604 147.14 6.32387 143.104C2.28737 139.067 0.015625 133.593 0.015625 127.884V21.648C0.015625 15.9394 2.28737 10.4647 6.32387 6.42337C10.3604 2.38687 15.835 0.119995 21.5436 0.119995Z" fill="white"/>
</mask>
<g mask="url(#mask0_123_2)">
<path d="M21.5436 0.119995H370.555C376.268 0.119995 381.743 2.38687 385.779 6.42337C389.816 10.4647 392.083 15.9394 392.083 21.648V127.884C392.083 133.593 389.816 139.067 385.779 143.104C381.743 147.14 376.268 149.412 370.555 149.412H21.5436C15.835 149.412 10.3604 147.14 6.32387 143.104C2.28737 139.067 0.015625 133.593 0.015625 127.884V21.648C0.015625 15.9394 2.28737 10.4647 6.32387 6.42337C10.3604 2.38687 15.835 0.119995 21.5436 0.119995Z" stroke="black" stroke-width="12"/>
</g>
<mask id="mask1_123_2" style="mask-type:luminance" maskUnits="userSpaceOnUse" x="168" y="15" width="92" height="81">
<path d="M168.184 15.3885H259.288V95.592H168.184V15.3885Z" fill="white"/>
</mask>
<g mask="url(#mask1_123_2)">
<path d="M257.874 76.5844L250.054 16.0174C250.054 16.0174 181.663 15.3885 174.848 15.3885C173.21 31.632 168.793 80.616 168.793 82.254C168.793 82.5027 168.793 83.1315 168.666 85.9054C168.539 88.4209 168.291 91.5702 168.413 92.7012C168.413 92.9547 168.413 93.5835 168.539 94.4659C176.617 94.5927 245.764 94.3392 257.874 94.3392C258.127 91.5702 258.381 89.6835 258.381 89.0498C258.634 85.9054 257.874 76.5844 257.874 76.5844ZM190.623 18.5329C190.623 18.5329 237.184 19.1618 238.569 19.1618C239.958 19.1618 243.492 20.9265 243.492 25.587C243.492 30.2475 239.578 30.6229 239.578 30.6229L190.243 29.994C190.243 29.994 184.817 30.2475 184.817 24.5779C184.817 18.9132 190.623 18.5329 190.623 18.5329ZM183.554 89.8054C181.409 89.8054 179.645 88.0455 179.645 85.9054C179.645 83.7653 181.409 82.0005 183.554 82.0005C185.699 82.0005 187.469 83.7653 187.469 85.9054C187.469 88.0455 185.699 89.8054 183.554 89.8054ZM193.904 89.6835C191.759 89.6835 189.989 87.9188 189.989 85.7787C189.989 83.6385 191.759 81.8738 193.904 81.8738C196.049 81.8738 197.814 83.6385 197.814 85.7787C197.687 88.0455 196.049 89.6835 193.904 89.6835ZM239.451 89.3033C237.306 89.3033 235.668 87.6653 235.668 85.5252C235.668 83.385 237.306 81.747 239.451 81.747C241.596 81.747 243.239 83.385 243.239 85.5252C243.239 87.5385 241.474 89.3033 239.451 89.3033ZM247.909 88.9279C246.013 88.9279 244.375 87.4167 244.375 85.3984C244.375 83.385 245.886 81.8738 247.909 81.8738C249.927 81.8738 251.439 83.385 251.439 85.3984C251.439 87.4167 249.801 88.9279 247.909 88.9279ZM172.956 76.0823L176.744 33.5187C205.258 32.6363 248.918 33.8989 248.918 33.8989L254.466 76.3358L172.956 76.0823Z" fill="black"/>
</g>
<mask id="mask2_123_2" style="mask-type:luminance" maskUnits="userSpaceOnUse" x="80" y="15" width="95" height="109">
<path d="M80.8242 15.3885H174.424V123.048H80.8242V15.3885Z" fill="white"/>
</mask>
<g mask="url(#mask2_123_2)">
<path d="M81.6042 101.393L168.794 122.546C168.413 115.497 167.404 94.4659 167.282 92.7012C167.282 91.5702 167.404 88.2942 167.531 85.7787C167.658 84.1407 167.784 82.5027 167.658 82.2541C167.658 80.1091 172.201 30.7497 173.717 15.5104C169.174 17.1484 125.387 31.5053 86.528 44.2242L84.7583 45.9841L80.9753 80.7428L81.6042 101.393ZM158.576 36.4144L168.413 34.0208L163.494 80.6161L153.15 80.4893L158.576 36.4144ZM151.507 37.5503L145.827 82.3759L147.47 109.827L140.153 108.316L138.764 81.1182L143.809 39.4369L151.507 37.5503ZM142.927 39.6904L137.881 81.1182L139.271 108.316L133.211 107.058L131.446 82.0006L136.238 41.2017L142.927 39.6904ZM134.474 42.4594L129.803 80.2358L117.567 80.1091L121.35 45.7354L134.474 42.4594ZM119.966 45.3552L115.671 81.6203L117.06 103.787L112.268 102.778L111.005 81.4984L114.915 46.6178L119.966 45.3552ZM114.159 46.8664L110.25 81.4984L111.507 102.651L107.217 101.769L105.96 81.3717L109.743 47.8756L114.159 46.8664ZM108.105 48.8798L104.697 79.8604C104.697 79.8604 97.8818 79.7337 95.9903 79.7337C95.9903 77.0914 99.398 51.0248 99.398 51.0248L108.105 48.8798ZM97.8818 50.8981L94.3475 81.1182L95.7368 99.5018L92.0757 98.7462L91.1933 80.8647L94.3475 51.6537L97.8818 50.8981ZM90.818 52.6579L93.8453 51.9023L90.6912 80.9914L91.5736 98.7462L88.5462 98.1173L87.5371 80.9914L90.818 52.6579Z" fill="black"/>
</g>
<path d="M45.6457 92.7011L80.7213 101.14L79.9657 80.7427L83.7487 46.1107C83.1198 45.984 82.2374 45.8621 81.4769 45.7354C69.2407 49.7621 57.7552 53.5402 48.2928 56.6895L47.5372 57.4451L45.1387 79.7336L45.6457 92.7011ZM77.1869 55.9339L74.413 80.616L75.1687 95.475L72.8969 95.0947L72.0145 80.616L74.6665 56.6895L77.1869 55.9339ZM74.2863 56.6895L71.6343 80.616L72.5215 94.968L70.2498 94.4659L69.3674 80.4892L72.0145 57.3184L74.2863 56.6895ZM70.8787 58.074L68.4802 79.4801H63.8148L65.7063 59.4585L70.8787 58.074ZM64.9507 59.0831L62.8057 80.4892L63.4345 93.2081L61.2895 92.8279L60.6607 80.4892L62.5522 59.712L64.9507 59.0831ZM62.1719 59.712L60.2804 80.4892L60.9093 92.7011L59.0178 92.3257L58.1354 80.3625L60.2804 60.0874L62.1719 59.712ZM59.6515 60.843L57.6284 79.3534H54.7278L56.6193 61.5986L59.6515 60.843ZM55.8637 61.35L53.7187 80.2357L54.7278 91.4434L52.7095 91.068L51.8272 80.2357L53.7187 61.8521L55.8637 61.35ZM51.7004 62.3542L53.3384 61.9789L51.4469 80.2357L52.3293 91.068L50.5645 90.6877L49.5554 80.109L51.7004 62.3542Z" fill="black"/>
<path d="M44.5103 79.8604L46.9039 57.8205C46.6553 57.8205 46.1483 57.6986 45.6461 57.6986C33.2783 61.7254 25.3271 64.3725 25.3271 64.3725V87.792L45.2659 92.5792L44.5103 79.8604ZM26.7165 85.9054L26.2144 79.6069L27.3503 68.526L28.4861 68.2725L27.3503 79.6069L27.8524 86.154L26.7165 85.9054ZM28.2326 86.154L27.7256 79.6069L28.8615 68.1506L30.2509 67.7704L28.8615 79.6069L29.3685 86.4075L28.2326 86.154ZM29.3685 78.978L30.6311 67.8971L32.1424 67.6436L30.753 78.978H29.3685ZM31.6403 86.7829L31.1333 79.4801L32.5226 67.0147L33.6585 66.7612L32.3959 79.6069L32.7761 86.9096L31.6403 86.7829ZM32.898 87.0364L32.5226 79.6069L33.7853 66.7612L35.1698 66.3859L33.6585 79.6069L33.7853 87.2899L32.898 87.0364ZM34.4141 78.978L35.6768 66.6394L38.5774 65.8837L37.3148 78.978H34.4141ZM38.3239 88.1722L37.8218 79.8604L39.2111 65.6302L40.4689 65.25L38.9576 79.8604L39.4598 88.4209L38.3239 88.1722ZM40.8491 88.6744L39.5865 88.4209L39.0844 79.7336L40.5956 65.1281L42.2385 64.7479L40.4689 79.8604L40.8491 88.6744Z" fill="black"/>
<mask id="mask3_123_2" style="mask-type:luminance" maskUnits="userSpaceOnUse" x="23" y="93" width="118" height="42">
<path d="M23.416 93.0959H140.728V134.26H23.416V93.0959Z" fill="white"/>
</mask>
<g mask="url(#mask3_123_2)">
<path d="M24.0692 134.26H140.406L24.4446 94.0904L24.0692 134.26Z" fill="black"/>
</g>
<mask id="mask4_123_2" style="mask-type:luminance" maskUnits="userSpaceOnUse" x="23" y="88" width="187" height="47">
<path d="M23.416 88.104H209.368V134.261H23.416V88.104Z" fill="white"/>
</mask>
<g mask="url(#mask4_123_2)">
<path d="M24.4443 90.8144L183.935 134.26H208.539L24.4443 88.2941V90.8144Z" fill="black"/>
</g>
<mask id="mask5_123_2" style="mask-type:luminance" maskUnits="userSpaceOnUse" x="168" y="94" width="91" height="41">
<path d="M168.184 94.344H258.04V134.26H168.184V94.344Z" fill="white"/>
</mask>
<g mask="url(#mask5_123_2)">
<path d="M168.539 95.3483C168.919 101.769 169.675 117.257 169.928 122.799L192.768 128.464L193.021 112.85C193.021 111.845 193.904 110.963 194.913 110.963L235.795 110.334C236.804 110.334 237.686 111.216 237.686 112.221L235.414 134.261H253.71C254.846 123.302 256.738 104.918 257.747 95.3483C248.284 95.3483 207.149 95.475 183.934 95.475C176.237 95.475 170.557 95.475 168.539 95.3483Z" fill="black"/>
</g>
<path d="M277.842 67.512H360.59V69.384H277.842V67.512Z" fill="black"/>
<path d="M284.451 63.1635C286.645 63.1635 287.747 62.286 287.747 60.531C287.747 59.6243 287.264 58.9466 286.304 58.503C285.782 58.2446 285.114 58.0058 284.295 57.7815C283.486 57.5621 282.813 57.3428 282.267 57.1185C281.731 56.8845 281.195 56.5676 280.649 56.163C279.567 55.3586 279.03 54.1253 279.03 52.458C279.03 50.781 279.606 49.4648 280.766 48.4995C281.921 47.5391 283.437 47.0565 285.309 47.0565C287.191 47.0565 288.941 47.4368 290.555 48.1875V52.302L287.747 52.497V50.898C287.747 50.625 287.713 50.4251 287.649 50.2935C287.44 49.9425 286.791 49.767 285.699 49.767C284.617 49.767 283.813 49.962 283.281 50.352C282.76 50.7323 282.501 51.3221 282.501 52.1265C282.501 52.7115 282.721 53.2283 283.164 53.667C283.462 53.9693 283.896 54.213 284.471 54.408C285.041 54.5933 285.651 54.7883 286.304 54.993C286.952 55.188 287.532 55.4123 288.039 55.656C288.546 55.89 289.073 56.2166 289.619 56.631C290.735 57.4646 291.296 58.737 291.296 60.453C291.296 62.169 290.677 63.5243 289.443 64.509C288.205 65.4986 286.577 65.991 284.549 65.991C282.531 65.991 280.717 65.6205 279.108 64.8795V60.531L281.897 60.336V62.013C281.897 62.286 281.936 62.4908 282.014 62.6175C282.092 62.7491 282.311 62.871 282.677 62.988C283.052 63.105 283.642 63.1635 284.451 63.1635Z" fill="black"/>
<path d="M299.971 51.4244C301.336 51.4244 302.418 51.7559 303.227 52.4189C304.031 53.0819 304.436 54.0179 304.436 55.2269C304.436 56.0362 304.261 56.7479 303.91 57.3719C303.568 57.9862 303.139 58.4639 302.623 58.8149C302.116 59.1562 301.496 59.4341 300.77 59.6534C299.532 60.0191 298.147 60.1994 296.617 60.1994C296.665 61.1744 296.968 61.9642 297.514 62.5589C298.069 63.1439 298.918 63.4364 300.049 63.4364C301.18 63.4364 302.315 63.0367 303.461 62.2274L304.495 64.4504C304.129 64.7917 303.51 65.1329 302.642 65.4839C301.769 65.8203 300.775 65.9909 299.659 65.9909C297.436 65.9909 295.798 65.3767 294.745 64.1384C293.701 62.9051 293.185 61.2086 293.185 59.0489C293.185 56.8942 293.774 55.0856 294.959 53.6279C296.153 52.1606 297.826 51.4244 299.971 51.4244ZM298.703 57.7034C299.376 57.5767 299.995 57.3086 300.556 56.9039C301.126 56.4896 301.414 55.9972 301.414 55.4219C301.414 54.3056 300.868 53.7449 299.776 53.7449C298.747 53.7449 297.962 54.1544 297.416 54.9734C296.87 55.7924 296.563 56.7674 296.5 57.8984C297.304 57.8887 298.04 57.8204 298.703 57.7034Z" fill="black"/>
<path d="M309.688 58.5809C309.688 60.1409 309.981 61.3499 310.566 62.2079C311.151 63.0659 311.994 63.4949 313.101 63.4949C314.202 63.4949 315.294 63.1049 316.377 62.3249L317.566 64.4309C316.264 65.4986 314.631 66.0299 312.672 66.0299C310.722 66.0299 309.181 65.4157 308.05 64.1774C306.919 62.9441 306.354 61.1159 306.354 58.6979C306.354 56.2799 306.997 54.4664 308.284 53.2574C309.581 52.0387 311.038 51.4244 312.652 51.4244C314.275 51.4244 315.782 51.7949 317.176 52.5359V56.1044L314.661 56.2994V54.9929C314.661 54.5006 314.475 54.1934 314.115 54.0764C313.764 53.9497 313.393 53.8814 313.003 53.8814C310.79 53.8814 309.688 55.4512 309.688 58.5809Z" fill="black"/>
<path d="M333.849 63.4755V65.64H329.403V63.846C328.389 65.2792 326.907 65.991 324.957 65.991C322.11 65.991 320.687 64.4115 320.687 61.2525V54.8955C320.687 54.4031 320.458 54.1496 320.004 54.135L319.127 54.0765V51.834H323.963V60.531C323.963 61.506 324.099 62.2421 324.372 62.7345C324.645 63.2317 325.211 63.4755 326.069 63.4755C326.927 63.4755 327.614 63.2122 328.136 62.676C328.667 62.1446 328.935 61.5011 328.935 60.7455V54.954C328.935 54.6712 328.882 54.4665 328.779 54.3495C328.672 54.2227 328.492 54.1496 328.233 54.135L327.356 54.0765V51.834H332.192V62.598C332.192 62.8856 332.236 63.0806 332.328 63.183C332.416 63.2902 332.601 63.3585 332.874 63.3975L333.849 63.4755Z" fill="black"/>
<path d="M337.223 62.5589V54.9539C337.223 54.6712 337.169 54.4664 337.067 54.3494C336.959 54.2227 336.784 54.1496 336.54 54.1349L335.37 54.0569V51.8339H340.011V53.8814C340.347 53.1697 340.859 52.5847 341.552 52.1264C342.254 51.6584 343.053 51.4244 343.95 51.4244C344.857 51.4244 345.725 51.6292 346.544 52.0289V56.1044L344.009 56.2994V55.0514C344.009 54.6761 343.911 54.4421 343.716 54.3494C343.521 54.2617 343.272 54.2129 342.975 54.2129C342.244 54.2129 341.649 54.4811 341.181 55.0124C340.713 55.5341 340.479 56.1922 340.479 56.9819V63.3584L342.878 63.4754V65.6399H335.507V63.5534L336.423 63.4754C336.696 63.4364 336.896 63.3584 337.028 63.2414C337.154 63.1244 337.223 62.9002 337.223 62.5589Z" fill="black"/>
<path d="M355.093 51.4244C356.458 51.4244 357.54 51.7559 358.349 52.4189C359.154 53.0819 359.558 54.0179 359.558 55.2269C359.558 56.0362 359.383 56.7479 359.032 57.3719C358.69 57.9862 358.261 58.4639 357.745 58.8149C357.238 59.1562 356.619 59.4341 355.892 59.6534C354.654 60.0191 353.269 60.1994 351.739 60.1994C351.787 61.1744 352.09 61.9642 352.636 62.5589C353.191 63.1439 354.04 63.4364 355.171 63.4364C356.302 63.4364 357.438 63.0367 358.583 62.2274L359.617 64.4504C359.251 64.7917 358.632 65.1329 357.764 65.4839C356.892 65.8203 355.897 65.9909 354.781 65.9909C352.558 65.9909 350.92 65.3767 349.867 64.1384C348.823 62.9051 348.307 61.2086 348.307 59.0489C348.307 56.8942 348.897 55.0856 350.081 53.6279C351.276 52.1606 352.948 51.4244 355.093 51.4244ZM353.825 57.7034C354.498 57.5767 355.117 57.3086 355.678 56.9039C356.248 56.4896 356.536 55.9972 356.536 55.4219C356.536 54.3056 355.99 53.7449 354.898 53.7449C353.869 53.7449 353.084 54.1544 352.538 54.9734C351.992 55.7924 351.685 56.7674 351.622 57.8984C352.426 57.8887 353.162 57.8204 353.825 57.7034Z" fill="black"/>
<path d="M360.591 67.512H366.09V69.384H360.591V67.512Z" fill="black"/>
<path d="M277.842 105.888H334.367V107.76H277.842V105.888Z" fill="black"/>
<path d="M278.719 104.016V101.793L279.635 101.715C280.152 101.666 280.415 101.403 280.415 100.935V88.182L278.855 88.0845V85.764H286.714C288.752 85.764 290.346 86.2467 291.491 87.207C292.632 88.1723 293.207 89.6153 293.207 91.536C293.207 93.447 292.554 94.9437 291.257 96.021C289.97 97.0887 288.254 97.62 286.109 97.62H283.769V101.598L286.402 101.676V104.016H278.719ZM283.769 94.9485H285.758C288.42 94.9485 289.756 93.8663 289.756 91.692C289.756 90.366 289.41 89.4885 288.722 89.0595C288.03 88.6305 286.938 88.416 285.446 88.416H283.769V94.9485Z" fill="black"/>
<path d="M307.277 90.756V100.974C307.277 101.262 307.321 101.462 307.414 101.579C307.516 101.686 307.697 101.749 307.96 101.774L308.837 101.813V104.016H304.469V102.417L304.391 102.398C303.465 103.714 302.212 104.367 300.628 104.367C298.756 104.367 297.371 103.777 296.474 102.593C295.577 101.398 295.129 99.765 295.129 97.698C295.129 95.2167 295.733 93.2813 296.942 91.887C298.151 90.4977 299.965 89.8005 302.383 89.8005C303.943 89.8005 305.571 90.1223 307.277 90.756ZM304.079 99.648V92.5305C303.572 92.2965 302.87 92.1795 301.973 92.1795C300.75 92.1795 299.858 92.6768 299.302 93.6615C298.756 94.6512 298.483 95.9625 298.483 97.6005C298.483 100.565 299.438 102.047 301.349 102.047C302.139 102.047 302.792 101.808 303.299 101.325C303.816 100.833 304.079 100.272 304.079 99.648Z" fill="black"/>
<path d="M317.694 92.2965C317.265 92.1308 316.739 92.043 316.115 92.043C315.491 92.043 314.988 92.1893 314.613 92.472C314.233 92.7597 314.048 93.1107 314.048 93.525C314.048 93.9297 314.111 94.2465 314.243 94.4805C314.384 94.7048 314.603 94.8998 314.906 95.0655C315.359 95.2995 315.905 95.5092 316.544 95.6895C317.192 95.8602 317.665 95.9967 317.967 96.099C318.279 96.2063 318.669 96.372 319.137 96.606C319.605 96.84 319.956 97.0935 320.19 97.3665C320.838 98.0442 321.165 98.9168 321.165 99.9795C321.165 101.359 320.663 102.437 319.664 103.217C318.659 103.987 317.392 104.367 315.861 104.367C313.623 104.367 311.942 104.084 310.811 103.529V99.7065L313.287 99.5115V100.838C313.287 101.647 314.052 102.047 315.588 102.047C317.119 102.047 317.889 101.491 317.889 100.37C317.889 99.9698 317.753 99.6383 317.48 99.375C317.216 99.1167 316.958 98.9412 316.7 98.8485C316.451 98.7608 316.144 98.6682 315.783 98.5755C315.432 98.4878 315.086 98.3952 314.75 98.3025C314.408 98.2148 314.038 98.088 313.638 97.932C313.248 97.776 312.819 97.5567 312.351 97.269C311.415 96.6597 310.947 95.6457 310.947 94.227C310.947 92.8133 311.444 91.7213 312.449 90.951C313.463 90.1857 314.73 89.8005 316.251 89.8005C317.782 89.8005 319.298 90.1662 320.795 90.8925V94.188L318.338 94.383V93.2325C318.338 92.7645 318.123 92.4525 317.694 92.2965Z" fill="black"/>
<path d="M330.075 92.2965C329.646 92.1308 329.119 92.043 328.495 92.043C327.871 92.043 327.369 92.1893 326.994 92.472C326.614 92.7597 326.428 93.1107 326.428 93.525C326.428 93.9297 326.492 94.2465 326.623 94.4805C326.765 94.7048 326.984 94.8998 327.286 95.0655C327.74 95.2995 328.286 95.5092 328.924 95.6895C329.573 95.8602 330.046 95.9967 330.348 96.099C330.66 96.2063 331.05 96.372 331.518 96.606C331.986 96.84 332.337 97.0935 332.571 97.3665C333.219 98.0442 333.546 98.9168 333.546 99.9795C333.546 101.359 333.044 102.437 332.044 103.217C331.04 103.987 329.773 104.367 328.242 104.367C326.004 104.367 324.322 104.084 323.191 103.529V99.7065L325.668 99.5115V100.838C325.668 101.647 326.433 102.047 327.969 102.047C329.5 102.047 330.27 101.491 330.27 100.37C330.27 99.9698 330.133 99.6383 329.86 99.375C329.597 99.1167 329.339 98.9412 329.08 98.8485C328.832 98.7608 328.525 98.6682 328.164 98.5755C327.813 98.4878 327.467 98.3952 327.13 98.3025C326.789 98.2148 326.419 98.088 326.019 97.932C325.629 97.776 325.2 97.5567 324.732 97.269C323.796 96.6597 323.328 95.6457 323.328 94.227C323.328 92.8133 323.825 91.7213 324.829 90.951C325.843 90.1857 327.111 89.8005 328.632 89.8005C330.163 89.8005 331.679 90.1662 333.175 90.8925V94.188L330.718 94.383V93.2325C330.718 92.7645 330.504 92.4525 330.075 92.2965Z" fill="black"/>
</svg>
