<svg width="25" height="25" viewBox="0 0 25 25" fill="none" xmlns="http://www.w3.org/2000/svg">
<g clip-path="url(#clip0_560_83)">
<path d="M18.4908 18.4591C16.7814 19.7621 14.6999 20.4839 12.5508 20.5191C5.55078 20.5191 1.55078 12.5191 1.55078 12.5191C2.79467 10.201 4.51992 8.17568 6.61078 6.57907M10.4508 4.75907C11.1391 4.59795 11.8438 4.51741 12.5508 4.51907C19.5508 4.51907 23.5508 12.5191 23.5508 12.5191C22.9438 13.6547 22.2198 14.7238 21.3908 15.7091M14.6708 14.6391C14.3961 14.9338 14.0649 15.1702 13.6969 15.3342C13.3289 15.4982 12.9317 15.5863 12.5289 15.5934C12.1261 15.6005 11.7259 15.5264 11.3524 15.3756C10.9788 15.2247 10.6395 15.0001 10.3546 14.7152C10.0698 14.4303 9.84517 14.091 9.69429 13.7175C9.54341 13.3439 9.46931 12.9438 9.47641 12.541C9.48352 12.1382 9.57169 11.7409 9.73566 11.3729C9.89963 11.0049 10.136 10.6737 10.4308 10.3991" stroke="white" stroke-width="2" stroke-linecap="round" stroke-linejoin="round"/>
<path d="M1.55078 1.51904L23.5508 23.519" stroke="white" stroke-width="2" stroke-linecap="round" stroke-linejoin="round"/>
</g>
<defs>
<clipPath id="clip0_560_83">
<rect width="24" height="24" fill="white" transform="translate(0.550781 0.519043)"/>
</clipPath>
</defs>
</svg>
