<svg width="231" height="106" viewBox="0 0 231 106" fill="none" xmlns="http://www.w3.org/2000/svg">
<mask id="mask0_207_141" style="mask-type:luminance" maskUnits="userSpaceOnUse" x="14" y="11" width="210" height="82">
<path d="M25.7895 11.9396H212.484C215.54 11.9396 218.469 13.1655 220.628 15.3485C222.787 17.5342 224 20.4949 224 23.5823V81.0364C224 84.1237 222.787 87.0845 220.628 89.2675C218.469 91.4505 215.54 92.6791 212.484 92.6791H25.7895C22.7359 92.6791 19.8073 91.4505 17.6481 89.2675C15.4889 87.0845 14.2737 84.1237 14.2737 81.0364V23.5823C14.2737 20.4949 15.4889 17.5342 17.6481 15.3485C19.8073 13.1655 22.7359 11.9396 25.7895 11.9396Z" fill="white"/>
</mask>
<g mask="url(#mask0_207_141)">
<path d="M25.7895 11.9396H212.484C215.54 11.9396 218.469 13.1655 220.628 15.3485C222.787 17.5342 224 20.4949 224 23.5823V81.0364C224 84.1237 222.787 87.0845 220.628 89.2675C218.469 91.4505 215.54 92.6791 212.484 92.6791H25.7895C22.7359 92.6791 19.8073 91.4505 17.6481 89.2675C15.4889 87.0845 14.2737 84.1237 14.2737 81.0364V23.5823C14.2737 20.4949 15.4889 17.5342 17.6481 15.3485C19.8073 13.1655 22.7359 11.9396 25.7895 11.9396Z" stroke="white" stroke-width="12"/>
</g>
<mask id="mask1_207_141" style="mask-type:luminance" maskUnits="userSpaceOnUse" x="101" y="20" width="50" height="44">
<path d="M101.263 20.2203H150.549V63.5957H101.263V20.2203Z" fill="white"/>
</mask>
<g mask="url(#mask1_207_141)">
<path d="M149.784 53.3161L145.554 20.5604C145.554 20.5604 108.555 20.2203 104.868 20.2203C103.982 29.0051 101.593 55.4964 101.593 56.3823C101.593 56.5168 101.593 56.8569 101.524 58.357C101.456 59.7174 101.321 61.4206 101.387 62.0323C101.387 62.1694 101.387 62.5095 101.456 62.9867C105.826 63.0552 143.233 62.9181 149.784 62.9181C149.921 61.4206 150.058 60.4003 150.058 60.0575C150.196 58.357 149.784 53.3161 149.784 53.3161ZM113.403 21.9209C113.403 21.9209 138.591 22.261 139.34 22.261C140.092 22.261 142.004 23.2154 142.004 25.7359C142.004 28.2563 139.886 28.4593 139.886 28.4593L113.197 28.1192C113.197 28.1192 110.262 28.2563 110.262 25.1901C110.262 22.1265 113.403 21.9209 113.403 21.9209ZM109.579 60.4662C108.418 60.4662 107.463 59.5144 107.463 58.357C107.463 57.1996 108.418 56.2452 109.579 56.2452C110.739 56.2452 111.696 57.1996 111.696 58.357C111.696 59.5144 110.739 60.4662 109.579 60.4662ZM115.178 60.4003C114.017 60.4003 113.06 59.4459 113.06 58.2885C113.06 57.1311 114.017 56.1767 115.178 56.1767C116.338 56.1767 117.293 57.1311 117.293 58.2885C117.224 59.5144 116.338 60.4003 115.178 60.4003ZM139.818 60.1946C138.657 60.1946 137.771 59.3088 137.771 58.1514C137.771 56.994 138.657 56.1081 139.818 56.1081C140.978 56.1081 141.867 56.994 141.867 58.1514C141.867 59.2402 140.912 60.1946 139.818 60.1946ZM144.393 59.9916C143.368 59.9916 142.481 59.1743 142.481 58.0828C142.481 56.994 143.299 56.1767 144.393 56.1767C145.485 56.1767 146.303 56.994 146.303 58.0828C146.303 59.1743 145.417 59.9916 144.393 59.9916ZM103.845 53.0445L105.894 30.0254C121.32 29.5482 144.939 30.2311 144.939 30.2311L147.941 53.1816L103.845 53.0445Z" fill="white"/>
</g>
<mask id="mask2_207_141" style="mask-type:luminance" maskUnits="userSpaceOnUse" x="54" y="20" width="51" height="59">
<path d="M54.0032 20.2203H104.639V78.4443H54.0032V20.2203Z" fill="white"/>
</mask>
<g mask="url(#mask2_207_141)">
<path d="M54.4252 66.7331L101.593 78.1728C101.387 74.3605 100.842 62.9867 100.776 62.0323C100.776 61.4206 100.842 59.6489 100.91 58.2885C100.979 57.4026 101.047 56.5168 100.979 56.3823C100.979 55.2223 103.437 28.5279 104.257 20.2863C101.799 21.1721 78.1107 28.9365 57.0888 35.8151L56.1315 36.7669L54.085 55.565L54.4252 66.7331ZM96.0654 31.5915L101.387 30.297L98.7265 55.4964L93.1301 55.4279L96.0654 31.5915ZM92.2413 32.2058L89.1689 56.4482L90.0577 71.2942L86.0991 70.4769L85.3475 55.768L88.0771 33.2261L92.2413 32.2058ZM87.5997 33.3632L84.8701 55.768L85.6217 70.4769L82.3436 69.7967L81.3889 56.2452L83.9813 34.1805L87.5997 33.3632ZM83.0266 34.8607L80.5001 55.2908L73.8805 55.2223L75.927 36.6324L83.0266 34.8607ZM75.178 36.4268L72.8546 56.0396L73.6062 68.0276L71.0138 67.4819L70.3307 55.9736L72.4458 37.1096L75.178 36.4268ZM72.037 37.2441L69.9219 55.9736L70.6023 67.4133L68.2815 66.9361L67.6011 55.9051L69.6476 37.7898L72.037 37.2441ZM68.7615 38.333L66.918 55.0878C66.918 55.0878 63.2311 55.0192 62.2078 55.0192C62.2078 53.5903 64.0513 39.493 64.0513 39.493L68.7615 38.333ZM63.2311 39.4245L61.3191 55.768L62.0707 65.7102L60.0901 65.3015L59.6127 55.6309L61.3191 39.8331L63.2311 39.4245ZM59.4097 40.3762L61.0474 39.9676L59.3411 55.6995L59.8184 65.3015L58.1807 64.9614L57.6348 55.6995L59.4097 40.3762Z" fill="white"/>
</g>
<path d="M34.9723 62.0322L53.9476 66.596L53.5388 55.5649L55.5854 36.8354C55.2452 36.7668 54.7678 36.7009 54.3564 36.6324C47.7368 38.8101 41.5233 40.8534 36.4043 42.5566L35.9955 42.9652L34.698 55.0192L34.9723 62.0322ZM52.0356 42.1479L50.535 55.4964L50.9437 63.5324L49.7148 63.3267L49.2374 55.4964L50.6721 42.5566L52.0356 42.1479ZM50.4664 42.5566L49.0317 55.4964L49.5117 63.2582L48.2827 62.9866L47.8054 55.4278L49.2374 42.8967L50.4664 42.5566ZM48.6229 43.3053L47.3254 54.8821H44.8015L45.8247 44.0541L48.6229 43.3053ZM45.416 43.8511L44.2556 55.4278L44.5958 62.3064L43.4354 62.1008L43.0951 55.4278L44.1184 44.1912L45.416 43.8511ZM43.9127 44.1912L42.8894 55.4278L43.2296 62.0322L42.2064 61.8292L41.729 55.3593L42.8894 44.3942L43.9127 44.1912ZM42.5492 44.8028L41.4547 54.8135H39.8856L40.9088 45.2115L42.5492 44.8028ZM40.5 45.077L39.3396 55.2908L39.8856 61.352L38.7937 61.149L38.3164 55.2908L39.3396 45.3486L40.5 45.077ZM38.2478 45.6201L39.1339 45.4171L38.1107 55.2908L38.588 61.149L37.6333 60.9434L37.0874 55.2222L38.2478 45.6201Z" fill="white"/>
<path d="M34.358 55.0877L35.6529 43.1682C35.5184 43.1682 35.2441 43.1023 34.9725 43.1023C28.2817 45.28 23.9802 46.7117 23.9802 46.7117V59.3773L34.7668 61.9663L34.358 55.0877ZM24.7319 58.357L24.4602 54.9507L25.0747 48.9579L25.6892 48.8208L25.0747 54.9507L25.3463 58.4914L24.7319 58.357ZM25.5521 58.4914L25.2778 54.9507L25.8923 48.7549L26.6439 48.5493L25.8923 54.9507L26.1665 58.6285L25.5521 58.4914ZM26.1665 54.6105L26.8496 48.6178L27.6672 48.4807L26.9155 54.6105H26.1665ZM27.3955 58.8315L27.1212 54.8821L27.8729 48.1406L28.4874 48.0035L27.8043 54.9507L28.01 58.9001L27.3955 58.8315ZM28.0759 58.9686L27.8729 54.9507L28.5559 48.0035L29.3049 47.8005L28.4874 54.9507L28.5559 59.1057L28.0759 58.9686ZM28.8961 54.6105L29.5792 47.9376L31.1484 47.529L30.4653 54.6105H28.8961ZM31.0113 59.5829L30.7396 55.0877L31.4912 47.3919L32.1717 47.1862L31.3541 55.0877L31.6257 59.7174L31.0113 59.5829ZM32.3774 59.8545L31.6943 59.7174L31.4227 55.0192L32.2402 47.1203L33.129 46.9147L32.1717 55.0877L32.3774 59.8545Z" fill="white"/>
<mask id="mask3_207_141" style="mask-type:luminance" maskUnits="userSpaceOnUse" x="22" y="62" width="65" height="23">
<path d="M22.9463 62.2458H86.4102V84.5082H22.9463V62.2458Z" fill="white"/>
</mask>
<g mask="url(#mask3_207_141)">
<path d="M23.2998 84.5082H86.2362L23.5029 62.7836L23.2998 84.5082Z" fill="white"/>
</g>
<mask id="mask4_207_141" style="mask-type:luminance" maskUnits="userSpaceOnUse" x="22" y="59" width="102" height="26">
<path d="M22.9463 59.5461H123.543V84.5082H22.9463V59.5461Z" fill="white"/>
</mask>
<g mask="url(#mask4_207_141)">
<path d="M23.5027 61.0119L109.784 84.5082H123.095L23.5027 59.6488V61.0119Z" fill="white"/>
</g>
<mask id="mask5_207_141" style="mask-type:luminance" maskUnits="userSpaceOnUse" x="101" y="62" width="49" height="23">
<path d="M101.263 62.9207H149.874V84.5082H101.263V62.9207Z" fill="white"/>
</mask>
<g mask="url(#mask5_207_141)">
<path d="M101.456 63.4639C101.661 66.9361 102.07 75.3122 102.207 78.3099L114.563 81.3735L114.7 72.9288C114.7 72.3857 115.177 71.9085 115.723 71.9085L137.84 71.5684C138.386 71.5684 138.863 72.0456 138.863 72.5887L137.634 84.5082H147.532C148.146 78.5814 149.17 68.6393 149.715 63.4639C144.596 63.4639 122.343 63.5324 109.784 63.5324C105.62 63.5324 102.547 63.5324 101.456 63.4639Z" fill="white"/>
</g>
<path d="M165.38 67.253C171.007 67.253 173.833 65.3501 173.833 61.5443C173.833 59.578 172.595 58.1085 170.131 57.1465C168.793 56.5862 167.08 56.0682 164.98 55.5819C162.904 55.1062 161.179 54.6304 159.778 54.1441C158.403 53.6367 157.027 52.9495 155.627 52.0721C152.851 50.3278 151.475 47.6531 151.475 44.0376C151.475 40.4009 152.951 37.5466 155.927 35.4534C158.89 33.3708 162.779 32.3242 167.581 32.3242C172.407 32.3242 176.896 33.1488 181.035 34.7768V43.6993L173.833 44.1222V40.6547C173.833 40.0626 173.745 39.6292 173.583 39.3438C173.045 38.5826 171.382 38.202 168.581 38.202C165.805 38.202 163.742 38.6249 162.379 39.4706C161.041 40.2952 160.378 41.5744 160.378 43.3187C160.378 44.5873 160.941 45.7079 162.079 46.6594C162.842 47.3148 163.954 47.8434 165.43 48.2663C166.893 48.668 168.456 49.0909 170.131 49.5349C171.794 49.9578 173.282 50.444 174.583 50.9726C175.883 51.4801 177.234 52.1884 178.634 53.087C181.498 54.8947 182.936 57.6539 182.936 61.3752C182.936 65.0964 181.348 68.0353 178.184 70.1708C175.008 72.3169 170.832 73.3846 165.63 73.3846C160.453 73.3846 155.802 72.5812 151.675 70.9743V61.5443L158.828 61.1215V64.7581C158.828 65.3501 158.928 65.7941 159.128 66.069C159.328 66.3544 159.891 66.6187 160.828 66.8725C161.791 67.1262 163.304 67.253 165.38 67.253Z" fill="white"/>
<path d="M184.684 73.3846V68.3837L186.711 68.2082C187.853 68.0985 188.436 67.5063 188.436 66.4535V37.7638L184.985 37.5445V32.3242H202.365C206.872 32.3242 210.398 33.4099 212.931 35.5704C215.454 37.7419 216.726 40.9881 216.726 45.3091C216.726 49.6082 215.282 52.975 212.414 55.3987C209.567 57.8005 205.772 58.9959 201.028 58.9959H195.853V67.945L201.675 68.1205V73.3846H184.684ZM195.853 52.986H200.252C206.139 52.986 209.093 50.5513 209.093 45.66C209.093 42.677 208.328 40.703 206.807 39.7379C205.276 38.7728 202.861 38.2902 199.562 38.2902H195.853V52.986Z" fill="white"/>
</svg>
